<svg xmlns="http://www.w3.org/2000/svg" viewBox="0 0 512 512">
  <path fill="#1572B6" d="M41.4 0l-29.8 338.2L256 512l244.4-173.8L470.6 0z"/>
  <path fill="#33A9DC" d="M256 472.2l183.9-130.9-21.7-245.6H256z"/>
  <path fill="#EBEBEB" d="M256 208.5h-83.2l-5.2-58.4h88.4V96H116.4l11.6 131.2h128V208.5zM256 340.3l-43.2-23.6-2.8-30.4h-50.4l6.4 72.4 89.6 39.2 89.6-39.2 6.4-72.4h-50.4l-2.8 30.4-43.2 23.6z"/>
  <path fill="#FFF" d="M255.9 96v44.1h88.4l-5.2 58.4h-83.2v44.1h128L379.6 96zM255.9 340.3v-44.1h47.6l-6.4-72.4h-41.2v-44.1h91.6l-11.6 131.2-80 39.4z"/>
</svg>