<svg xmlns="http://www.w3.org/2000/svg" viewBox="0 0 512 512">
  <title>HTML5</title>
  <path fill="#E44D26" d="M0 32l34.9 395.8L256 480l221.1-52.2L512 32z"/>
  <path fill="#F16529" d="M256 56.5l-195.9 46.2L62.3 432.6 256 480l193.7-47.4 14.2-149.4H256V56.5z"/>
  <path fill="#EBEBEB" d="M256 208.7h-76.4l-5.7-58.3h82.1V118H108.9l11.7 117.8H256v-27.1zM256 355.7h-76.4l-5.7-58.3h82.1V268H108.9l11.7 117.8H256v-27.1z"/>
  <path fill="#FFFFFF" d="M255.9 181.6h-38.8l-3.7-37.5h42.5V118H142.1l11.7 117.8h102.1v-27.1zM255.9 328.6h-38.8l-3.7-37.5h42.5V268H142.1l11.7 117.8h102.1v-27.1z"/>
</svg>